<svg id="レイヤー_1" data-name="レイヤー 1" xmlns="http://www.w3.org/2000/svg" viewBox="0 0 57.9 13.4"><defs><style>.cls-1{fill:#707070;}</style></defs><title>listmemo_logo</title><path class="cls-1" d="M1.1,1.8H2V9.5H6.4v.7H1.1Z"/><path class="cls-1" d="M7.6,1.4h.8V2.6H7.6Zm0,2.8h.8v6H7.6Z"/><path class="cls-1" d="M10.3,5.7V4.2H11a4.1,4.1,0,0,1,.1,1.1A1.8,1.8,0,0,1,13,4a2.1,2.1,0,0,1,2.1,2.3v3.9h-.9V6.4c0-1-.4-1.6-1.3-1.6s-1.8,1-1.8,2.3v3.1h-.8Z"/><path class="cls-1" d="M17.7,7.2l2.9-3h1L19.3,6.6l2.6,3.6h-1L18.7,7.1l-1,.9v2.2h-.8V1.4h.8Z"/><path class="cls-1" d="M33.2,6.5c0-1.6.1-3.2.1-4h0c-.4,1.2-1.9,5.1-2.9,7.7h-.8c-.8-2.1-2.4-6.4-2.8-7.8h0c0,1,.1,2.9.1,4.3v3.5H26V1.8h1.3c1.1,2.8,2.4,6.4,2.7,7.4h0c.2-.7,1.8-4.7,2.8-7.4h1.3v8.4h-.9Z"/><path class="cls-1" d="M36.5,7.3c0,1.4.8,2.3,1.9,2.3a1.5,1.5,0,0,0,1.6-1h.8a2.5,2.5,0,0,1-2.5,1.8c-1.8,0-2.6-1.6-2.6-3.2S36.6,4,38.4,4a2.5,2.5,0,0,1,2.5,2.8v.5Zm3.6-.6a1.8,1.8,0,0,0-1.7-2c-1.2,0-1.7.8-1.8,2Z"/><path class="cls-1" d="M42.3,5.7V4.2h.8v1A1.9,1.9,0,0,1,44.9,4a1.7,1.7,0,0,1,1.7,1.2,2.1,2.1,0,0,1,2-1.2,1.9,1.9,0,0,1,1.9,2.2v4h-.8V6.3c0-.7-.3-1.5-1.3-1.5s-1.6.8-1.6,1.9v3.5H46V6.4c0-.9-.2-1.6-1.3-1.6s-1.6.9-1.6,2.1v3.3h-.8Z"/><path class="cls-1" d="M57.4,7.2c0,1.7-1,3.2-2.8,3.2S51.9,9,51.9,7.2,52.9,4,54.7,4,57.4,5.3,57.4,7.2Zm-4.7,0c0,1.4.8,2.4,2,2.4s1.9-1,1.9-2.4-.7-2.5-2-2.5S52.7,5.8,52.7,7.2Z"/></svg>