<svg id="レイヤー_1" data-name="レイヤー 1" xmlns="http://www.w3.org/2000/svg" xmlns:xlink="http://www.w3.org/1999/xlink" viewBox="0 0 44.4 22.9"><defs><style>.cls-1{fill:url(#名称未設定グラデーション_63);}</style><linearGradient id="名称未設定グラデーション_63" y1="11.44" x2="44.38" y2="11.44" gradientUnits="userSpaceOnUse"><stop offset="0.07" stop-color="#685fa1"/><stop offset="0.47" stop-color="#14638a"/><stop offset="0.93" stop-color="#3499b8"/></linearGradient></defs><title>listmemo_logo</title><path class="cls-1" d="M32.9,0A11.5,11.5,0,0,0,22.2,7.6a11.5,11.5,0,1,0,0,7.7A11.4,11.4,0,1,0,32.9,0Zm0,18.9a7.6,7.6,0,0,1-7-5h.9a2.4,2.4,0,0,0,0-4.8h-.9a7.4,7.4,0,0,1,14.5,2.3A7.6,7.6,0,0,1,32.9,18.9Zm-21.5,0A7.5,7.5,0,0,1,4,11.4,7.4,7.4,0,0,1,18.5,9.1h-.7a2.4,2.4,0,0,0,0,4.8h.6A7.4,7.4,0,0,1,11.4,18.9Z"/></svg>